<?xml version="1.0" encoding="UTF-8" standalone="no"?>
<!-- Created with Inkscape (http://www.inkscape.org/) -->

<svg
   width="63mm"
   height="63mm"
   viewBox="0 0 63 63"
   version="1.1"
   id="svg5"
   inkscape:version="1.2.2 (b0a8486541, 2022-12-01)"
   sodipodi:docname="card-back.svg"
   xmlns:inkscape="http://www.inkscape.org/namespaces/inkscape"
   xmlns:sodipodi="http://sodipodi.sourceforge.net/DTD/sodipodi-0.dtd"
   xmlns="http://www.w3.org/2000/svg"
   xmlns:svg="http://www.w3.org/2000/svg">
  <sodipodi:namedview
     id="namedview7"
     pagecolor="#ffffff"
     bordercolor="#666666"
     borderopacity="1.0"
     inkscape:showpageshadow="2"
     inkscape:pageopacity="0.0"
     inkscape:pagecheckerboard="0"
     inkscape:deskcolor="#d1d1d1"
     inkscape:document-units="mm"
     showgrid="false"
     inkscape:zoom="1.8761364"
     inkscape:cx="74.887945"
     inkscape:cy="63.161719"
     inkscape:window-width="2560"
     inkscape:window-height="1384"
     inkscape:window-x="0"
     inkscape:window-y="0"
     inkscape:window-maximized="1"
     inkscape:current-layer="text5253" />
  <defs
     id="defs2" />
  <g
     inkscape:label="Layer 1"
     inkscape:groupmode="layer"
     id="layer1">
    <g
       id="g10010"
       transform="scale(1,0.71590909)">
      <rect
         style="opacity:1;fill:#fff814;fill-opacity:1;fill-rule:evenodd;stroke:none;stroke-width:1.37583;stroke-linecap:round;stroke-linejoin:round;stroke-dasharray:none;stroke-dashoffset:6.95055;stroke-opacity:1"
         id="rect10738"
         width="63"
         height="88"
         x="0"
         y="0" />
      <rect
         style="opacity:1;fill:#ffaaaa;fill-opacity:1;fill-rule:evenodd;stroke:none;stroke-width:1.37583;stroke-linecap:round;stroke-linejoin:round;stroke-dasharray:none;stroke-dashoffset:6.95055;stroke-opacity:1"
         id="rect1827"
         width="63"
         height="88"
         x="0"
         y="0"
         ry="0" />
    </g>
    <g
       aria-label="ME MO RY"
       id="text5253"
       style="font-size:22.1234px;line-height:0.75;text-align:center;letter-spacing:4.14337px;text-anchor:middle;fill:#8cc2b8;stroke-width:0.264582">
      <path
         d="m 25.984486,21.072719 q 0.959469,-1.25264 3.851201,-5.037212 0.01332,0 0.0533,0 0,0.02665 0,0.119933 0.119934,2.358695 0.453083,9.474756 -0.293171,0 -1.172685,0 -0.106607,-1.572463 -0.413104,-6.289852 -0.69295,0.919491 -2.771799,3.651312 -0.706276,-0.932817 -2.825103,-3.69129 -0.106608,1.585789 -0.426431,6.343155 -0.29317,0 -1.172684,0 0.119934,-2.385346 0.466409,-9.55471 0.01333,0 0.06663,0 0.01333,0 0.0533,0 0.959469,1.239314 3.837875,4.983908 z"
         style="font-family:Beteckna;-inkscape-font-specification:'Beteckna, Normal';stroke-width:0.163195"
         id="path1894" />
      <path
         d="m 36.402444,21.29926 q 0.839535,0 3.344815,0 0,-0.266519 -0.02665,-1.106055 -0.826209,0 -3.318163,-0.01332 0,-1.119381 0,-1.772352 0,-0.652972 0,-1.212662 1.252639,0 3.744594,0 0,-0.279846 0,-1.106055 -1.25264,0 -4.997234,0 0,2.385347 0,9.554711 1.279291,0 5.117167,0 0,-0.279845 0,-1.11938 -0.959469,0 -3.864527,0 0,-0.799558 0,-3.224882 z"
         style="font-family:Beteckna;-inkscape-font-specification:'Beteckna, Normal';stroke-width:0.163195"
         id="path1896" />
      <path
         d="m 25.173315,32.216023 q 0.959469,-1.25264 3.851201,-5.037212 0.01332,0 0.05331,0 0,0.02665 0,0.119933 0.119933,2.358695 0.453082,9.474755 -0.293171,0 -1.172684,0 -0.106608,-1.572463 -0.413105,-6.289851 -0.69295,0.919491 -2.771798,3.651312 -0.706276,-0.932817 -2.825104,-3.69129 -0.106607,1.585789 -0.42643,6.343155 -0.293171,0 -1.172685,0 0.119934,-2.385346 0.466409,-9.554711 0.01332,0 0.06663,0 0.01333,0 0.0533,0 0.959469,1.239315 3.837876,4.983909 z"
         style="font-family:Beteckna;-inkscape-font-specification:'Beteckna, Normal';stroke-width:0.163195"
         id="path1898" />
      <path
         d="m 42.688424,33.908419 q -0.373127,0.892839 -1.052751,1.585789 -0.666297,0.679624 -1.585788,1.05275 -0.892839,0.359801 -1.865635,0.373127 -0.02665,0 -0.03997,0 -0.932817,0 -1.838982,-0.373127 -0.879513,-0.3598 -1.572463,-1.05275 -0.692949,-0.679624 -1.066076,-1.585789 -0.373127,-0.879514 -0.373127,-1.865634 0,-0.02665 0,-0.03998 0,-0.946143 0.373127,-1.838982 0.359801,-0.879513 1.066076,-1.585789 0.666298,-0.679623 1.572463,-1.05275 0.892839,-0.373127 1.87896,-0.373127 0.946143,0 1.865634,0.373127 0.892839,0.359801 1.585789,1.05275 0.666298,0.679624 1.052751,1.585789 0.373127,0.866187 0.373127,1.81233 0,0.02665 0,0.06663 0,0.972794 -0.373127,1.865634 z m -0.839535,-1.87896 q 0.01333,-0.746254 -0.266519,-1.399226 -0.293171,-0.679624 -0.799558,-1.18601 -0.506386,-0.519712 -1.172684,-0.786231 -0.69295,-0.279845 -1.399226,-0.279845 -0.746253,0 -1.399225,0.279845 -0.679623,0.279845 -1.18601,0.786231 -0.519712,0.519712 -0.786231,1.18601 -0.279846,0.679624 -0.279846,1.399226 0,0.732928 0.279846,1.385899 0.279845,0.69295 0.786231,1.18601 0.519712,0.519713 1.18601,0.786232 0.679624,0.293171 1.399225,0.279845 0.732928,-0.01333 1.399226,-0.279845 0.679624,-0.279845 1.172684,-0.786232 0.519713,-0.519712 0.799558,-1.18601 0.279845,-0.666297 0.266519,-1.385899 z"
         style="font-family:Beteckna;-inkscape-font-specification:'Beteckna, Normal';stroke-width:0.163195"
         id="path1900" />
      <path
         d="m 23.220672,38.375418 q 0.706275,0 2.825102,-0.01333 0.03997,0 0.07996,0 0.652972,0 1.18601,0.266519 0.55969,0.26652 0.879513,0.719602 0.306497,0.439757 0.439757,0.999447 0.133259,0.55969 0.03998,1.106054 -0.09328,0.533038 -0.399779,1.026099 -0.319823,0.49306 -0.812884,0.799557 0.746254,1.545811 2.238761,4.650759 -0.333148,0 -1.372573,0 -0.519713,-1.066077 -2.065524,-4.290958 -0.146585,0.01333 -0.346474,0.01333 -0.479735,0.01333 -1.439204,0.02665 0.01332,1.05275 0.05331,4.25098 -0.319823,0 -1.292618,0 0,-2.385346 -0.01332,-9.554711 z m 1.252639,1.11938 q 0,0.772906 0,3.06497 0.373127,0 1.492508,0 0.42643,0 0.746253,-0.226541 0.333149,-0.226541 0.493061,-0.55969 0.159911,-0.333149 0.173237,-0.732927 0.01333,-0.399779 -0.119934,-0.732928 -0.13326,-0.346475 -0.453082,-0.573016 -0.319823,-0.239868 -0.772906,-0.239868 -0.519712,0 -1.559137,0 z"
         style="font-family:Beteckna;-inkscape-font-specification:'Beteckna, Normal';stroke-width:0.163195"
         id="path1902" />
      <path
         d="m 32.909572,38.388744 q 0.373127,0 1.45253,0 0.666297,1.039425 2.651865,4.197676 0.652972,-1.05275 2.611888,-4.197676 0.373126,0 1.452529,0 -0.839536,1.332596 -3.384793,5.343709 0,1.039425 0,4.157698 -0.359801,0.01333 -1.439204,0.03998 0.02665,-1.039424 0.09328,-4.144372 0,0 0.01333,0 -0.866187,-1.345922 -3.451422,-5.397013 z"
         style="font-family:Beteckna;-inkscape-font-specification:'Beteckna, Normal';stroke-width:0.163195"
         id="path1904" />
    </g>
  </g>
</svg>
